<svg xmlns="http://www.w3.org/2000/svg" viewBox="0 0 845.80377 229.22125">
  <defs>
    <clipPath id="a">
      <path d="M0 183.377h676.643V0H0v183.377z"/>
    </clipPath>
  </defs>
  <g clip-path="url(#a)" transform="matrix(1.25 0 0 -1.25 0 229.22)">
    <path fill="#8ad0ea" d="M111.8433 149.1513c-.03-.119-.06-.238-.092-.356-.007-.026-.013-.051-.02-.077-.026-.098-.053-.197-.08-.295-.008-.027-.015-.054-.023-.081-.026-.093-.052-.186-.079-.279l-.03-.103c-.025-.086-.051-.173-.077-.259l-.033-.11c-.03-.1-.061-.199-.093-.299-.006-.02-.012-.04-.018-.059-.039-.12-.077-.24-.117-.36-.01-.029-.019-.058-.029-.087-.031-.091-.061-.182-.093-.274-.013-.039-.027-.079-.041-.118-.027-.078-.054-.156-.082-.234-.017-.046-.034-.093-.05-.14-.027-.074-.054-.147-.081-.22l-.051-.138c-.027-.073-.055-.147-.084-.22-.017-.046-.034-.091-.052-.137-.03-.078-.061-.155-.091-.233-.016-.04-.032-.08-.048-.119-.047-.117-.094-.234-.142-.35l-24.282-58.622 44.748 18.535-16.438 39.688-2.349 5.67c-.054-.241-.112-.481-.172-.72l-.001-.003z"/>
    <path fill="#c5e6f5" d="M103.226 34.2325c.029.117.059.233.09.349.007.026.014.052.021.077.025.096.051.192.077.288.009.033.018.065.028.097.024.088.049.176.074.263l.033.115.075.251c.012.038.023.076.035.114.03.099.06.197.091.295.007.021.013.042.02.064.038.12.077.24.117.361.009.027.019.055.028.082.03.091.06.181.091.27.016.048.033.095.049.143.015.042.03.084.044.126.011.029.021.058.031.087.018.049.036.099.054.148.024.069.05.138.075.206.019.052.038.104.058.156l.078.207.054.141c.032.082.064.163.096.244.014.035.028.071.042.106.048.118.095.236.144.353l24.279 58.621-44.746-18.534 1.56-3.768 17.228-41.59c.054.239.111.478.171.716v.002l.003.01m80.0922 40.8623l1.56 3.767-44.746 18.535 24.279-58.621c.049-.117.097-.235.144-.353.014-.035.028-.071.042-.107l.096-.243.054-.141c.027-.069.053-.138.079-.207l.057-.156c.026-.069.051-.138.076-.206.018-.05.036-.099.053-.148.01-.029.021-.058.031-.087.015-.042.029-.084.044-.126.016-.048.033-.095.049-.143.031-.09.062-.18.092-.27.009-.027.018-.055.027-.083.04-.12.079-.24.118-.361.006-.021.013-.042.019-.063.031-.098.062-.196.092-.295.012-.038.023-.076.034-.115.026-.083.051-.167.075-.25.011-.039.022-.077.033-.115l.075-.263.027-.097.078-.288c.007-.026.014-.051.02-.077.031-.116.061-.233.09-.349.001-.004.002-.007.003-.01 0-.001 0-.002.001-.003.059-.238.117-.476.171-.715l17.227 41.59z"/>
    <path fill="#8ad0ea" d="M183.0875 85.9812l-24.282 58.622c-.048.116-.095.233-.142.35l-.048.12c-.03.077-.061.154-.091.232-.018.046-.035.091-.053.137-.028.073-.056.147-.083.221-.017.045-.034.091-.051.137-.027.073-.054.147-.081.22-.016.047-.033.094-.05.14-.028.078-.055.156-.082.234-.014.04-.028.079-.041.119-.032.091-.063.182-.093.273-.01.029-.02.058-.029.087-.04.12-.078.24-.117.36-.006.019-.012.039-.018.059-.032.1-.063.199-.093.299-.011.037-.022.074-.033.11-.026.086-.052.173-.077.259l-.03.103c-.027.093-.053.186-.079.279-.008.027-.015.054-.023.081-.027.098-.054.197-.08.295-.007.026-.013.051-.02.077-.032.119-.062.237-.092.356l-.001.003c-.06.239-.118.479-.172.72l-2.349-5.67-16.438-39.688 44.748-18.535z"/>
    <path fill="#c5e6f5" d="M192.4134 78.862l1.561-3.767h-.001l21.111-50.966 3.239-7.819C222.4274 6.402 232.0084 0 242.7324 0c.108 0 .216.001.324.002.108.001.217.003.324.006 2.052.05 4.078.339 6.058.864.521.138 1.039.292 1.553.462.205.069.411.139.615.213.409.146.816.303 1.22.471.102.042.203.085.304.128.203.087.403.176.603.267 3.987 1.825 7.394 4.562 9.993 7.98.13.171.258.344.384.518.189.262.373.527.552.796.3.448.586.907.858 1.375.218.375.428.756.628 1.142.201.387.392.78.575 1.179.137.299.268.601.395.907 2.699 6.516 2.699 13.694 0 20.211l-25.911 62.552-6.099-2.526-17.865-7.4-24.83-10.285z"/>
    <path fill="#8ad0ea" d="M219.9926 149.1513c-.03-.119-.06-.238-.092-.356-.007-.026-.013-.051-.02-.077-.009-.032-.017-.064-.026-.096l-.054-.199c-.008-.027-.015-.054-.023-.081-.026-.093-.052-.186-.079-.279l-.03-.103c-.025-.086-.051-.173-.077-.259l-.033-.11c-.03-.1-.061-.199-.093-.299-.006-.02-.012-.04-.018-.059-.037-.116-.074-.231-.113-.347l-.004-.013c-.01-.029-.019-.058-.029-.087-.03-.091-.061-.182-.093-.274-.013-.039-.027-.079-.041-.118-.027-.078-.054-.156-.082-.234-.017-.046-.034-.093-.05-.14-.027-.074-.054-.147-.081-.22l-.051-.138c-.027-.073-.055-.147-.083-.22-.018-.046-.035-.091-.053-.137-.03-.078-.061-.155-.091-.233-.016-.04-.032-.08-.048-.119-.047-.117-.094-.234-.142-.35l-24.282-58.622 7.91 3.276 36.839 15.26-18.788 45.357c-.054-.241-.112-.481-.172-.72l-.001-.003z"/>
    <path fill="#009fcd" d="M173.171 178.3655c-.008-.005-.015-.011-.022-.016-1.081-.783-2.107-1.651-3.075-2.604l-.186-.184-.027-.027-.052-.054-.172-.177c-.041-.043-.082-.085-.122-.128-.057-.059-.112-.119-.168-.178-.08-.087-.161-.174-.24-.262l-.01-.01c-.352-.389-.691-.785-1.017-1.191l-.057-.072c-.075-.093-.149-.187-.222-.282-.05-.063-.099-.127-.148-.191-.032-.042-.064-.083-.095-.125-.088-.117-.176-.236-.262-.355-.008-.011-.017-.022-.025-.033-.899-1.243-1.694-2.572-2.383-3.986l-.021-.045-.625-1.393c-2.214-5.375-2.603-11.171-1.174-16.676.146-.561.31-1.119.494-1.673.068-.207.139-.413.213-.619.147-.411.305-.821.474-1.227l24.397-58.9 24.398 58.9c.168.406.326.816.473 1.227.074.206.145.412.213.619.184.554.348 1.112.494 1.673 1.429 5.505 1.04 11.301-1.174 16.676l-.636 1.418-.002.005c-.614 1.262-1.313 2.456-2.095 3.582-.003.005-.006.01-.01.015-.076.109-.153.218-.231.326-.826 1.147-1.751 2.236-2.774 3.264-.987.979-2.033 1.87-3.137 2.671-.019.014-.038.027-.057.041-.028.02-.055.04-.083.06-1.203.858-2.485 1.621-3.848 2.286-.086.041-.171.082-.257.123l-2.63 1.073-.004.001h-.001l-.01.004c-.004.001-.009.003-.013.004l-.001.001c-.002 0-.003.001-.005.001-.063.022-.126.044-.19.065-.009.003-.019.007-.028.01-.989.331-1.99.603-2.999.814-.035.008-.069.015-.104.022-.045.009-.089.018-.133.027-1.683.336-3.403.507-5.156.512-1.75-.005-3.467-.176-5.147-.51-1.177-.236-2.342-.552-3.491-.95l-2.598-1.059-.241-.113c-.018-.008-.036-.017-.054-.026-1.357-.661-2.634-1.42-3.832-2.274-.038-.027-.075-.053-.112-.08"/>
    <path fill="#c5e6f5" d="M75.1688 75.0947l1.56 3.767-24.829 10.285-17.866 7.4-6.099 2.527-25.91-62.553c-2.7-6.516-2.7-13.694 0-20.211.126-.305.258-.608.395-.907.182-.398.374-.791.574-1.178.201-.387.41-.768.628-1.143.218-.374.445-.742.68-1.104.235-.362.479-.718.731-1.066.125-.175.253-.347.383-.518 2.599-3.419 6.006-6.155 9.994-7.98.199-.092.4-.181.602-.267.101-.044.203-.087.305-.129.404-.167.81-.324 1.219-.471.205-.073.41-.144.616-.212.514-.171 1.032-.325 1.553-.463 1.979-.524 4.005-.813 6.057-.864l.324-.006c.108-.001.217-.002.325-.002 10.724 0 20.305 6.402 24.409 16.31l3.238 7.819 21.111 50.966z"/>
    <path fill="#8ad0ea" d="M50.514 144.9528c-.016.04-.032.08-.047.12-.031.077-.062.155-.092.232-.018.046-.035.092-.052.137-.029.074-.056.147-.084.221-.017.046-.034.092-.051.137-.027.074-.054.147-.08.22l-.051.141c-.028.078-.055.155-.082.233-.014.04-.028.079-.041.119-.032.091-.062.182-.093.274-.009.029-.019.057-.029.086l-.004.014c-.038.115-.076.231-.112.346-.007.02-.013.04-.019.059-.031.1-.063.2-.093.299l-.033.111c-.026.086-.052.172-.077.258l-.03.104c-.027.092-.053.186-.079.279-.008.027-.015.054-.023.081-.018.066-.036.132-.054.199-.009.032-.017.064-.026.096-.006.025-.013.051-.02.076-.031.119-.062.238-.092.356l-.001.003c-.06.24-.117.48-.172.72l-18.788-45.357 36.839-15.259 7.91-3.277-24.282 58.622c-.048.117-.095.233-.142.35"/>
    <path fill="#009fcd" d="M65.0346 178.3748l-.057-.042c-1.104-.8-2.15-1.691-3.137-2.67-1.023-1.029-1.947-2.117-2.774-3.264-.077-.108-.155-.217-.231-.327-.004-.004-.007-.009-.01-.014-.782-1.126-1.481-2.321-2.095-3.583l-.002-.005-.636-1.417c-2.214-5.376-2.603-11.172-1.174-16.676.146-.561.31-1.119.494-1.673.068-.207.139-.413.213-.619.147-.412.305-.821.474-1.228l24.397-58.899 24.397 58.899c.169.407.327.816.474 1.228.074.206.145.412.213.619.184.554.348 1.112.494 1.673 1.429 5.504 1.04 11.3-1.174 16.676l-.625 1.393-.021.045c-.688 1.413-1.484 2.742-2.383 3.985-.008.012-.016.023-.025.034-.086.119-.174.237-.262.355-.031.041-.063.083-.095.124-.049.065-.098.128-.148.192-.073.095-.147.189-.221.282-.02.024-.039.048-.058.072-.326.405-.665.802-1.017 1.19-.003.004-.007.008-.01.011-.079.088-.159.175-.24.261-.056.06-.111.119-.167.178l-.123.129-.172.177-.052.053-.027.027-.185.185c-.969.953-1.995 1.821-3.075 2.603l-.023.017c-.037.027-.074.053-.112.079-1.198.855-2.475 1.614-3.831 2.275-.019.009-.037.017-.055.026l-.241.113-2.598 1.059c-1.149.397-2.314.714-3.491.949-1.68.335-3.397.506-5.147.511-1.753-.005-3.473-.177-5.155-.512-.045-.009-.089-.018-.134-.028-.034-.007-.069-.014-.104-.021-1.009-.212-2.009-.483-2.999-.815-.009-.003-.019-.006-.028-.009-.064-.022-.127-.043-.19-.065-.002-.001-.003-.001-.005-.002h-.001c-.004-.001-.009-.003-.013-.004l-.01-.004h-.001l-.004-.002-2.63-1.073c-.086-.04-.171-.081-.257-.123-1.363-.664-2.645-1.427-3.848-2.286-.028-.019-.055-.039-.083-.059"/>
    <path fill="#8ad0ea" d="M150.0334 5.0038l.057.042c1.104.8 2.15 1.691 3.137 2.67 1.023 1.029 1.947 2.117 2.774 3.264.077.108.155.217.231.327.004.004.007.009.01.014.782 1.126 1.481 2.321 2.095 3.583l.002.005.636 1.417c2.214 5.376 2.603 11.172 1.174 16.676-.146.561-.31 1.119-.494 1.673-.068.207-.139.414-.213.619-.147.412-.305.821-.474 1.228l-24.397 58.899-24.397-58.899c-.169-.407-.327-.816-.474-1.228-.074-.205-.145-.412-.213-.619-.184-.554-.348-1.112-.494-1.673-1.429-5.504-1.04-11.3 1.174-16.676l.625-1.393.021-.045c.688-1.413 1.484-2.742 2.383-3.985.008-.012.016-.023.025-.034.086-.119.174-.237.262-.355.031-.041.063-.083.095-.124.049-.065.098-.128.148-.192.073-.095.147-.189.221-.282.02-.024.039-.048.058-.072.326-.405.665-.802 1.017-1.19.003-.004.007-.008.01-.011.079-.088.159-.175.24-.261.056-.06.111-.119.167-.178l.123-.129.172-.177.052-.053.027-.027.185-.185c.969-.953 1.995-1.821 3.075-2.603l.023-.017c.037-.027.074-.053.112-.079 1.198-.855 2.475-1.614 3.831-2.275.019-.009.037-.017.055-.026l.241-.113 2.598-1.059c1.149-.397 2.314-.714 3.491-.949 1.68-.335 3.397-.506 5.147-.511 1.753.005 3.473.177 5.155.512.045.009.089.018.134.028.034.007.069.014.104.021 1.009.212 2.009.483 2.999.815.009.003.019.006.028.009.064.022.127.043.19.065.002.001.003.001.005.002h.001c.004.001.009.003.013.004l.01.004h.001l.004.002 2.63 1.073c.086.04.171.081.257.123 1.363.664 2.645 1.427 3.848 2.286.028.019.055.039.083.059"/>
    <path fill="#124176" d="M315.1824 93.085c-.611 4.612-3.324 7.733-7.665 7.733-4.273 0-7.055-3.053-7.868-7.733h15.533zm-6.647-21.838c-10.921 0-18.992 7.663-18.992 18.787v.134c0 10.379 7.394 18.924 17.974 18.924 12.14 0 17.5-9.971 17.5-17.497 0-2.985-2.104-4.952-4.817-4.952h-20.415c1.017-4.68 4.273-7.123 8.885-7.123 2.848 0 5.222.882 7.326 2.443.745.542 1.424.813 2.508.813 2.306 0 4.002-1.763 4.002-4.069 0-1.356-.611-2.374-1.356-3.051-3.188-2.714-7.326-4.409-12.615-4.409m132.2032 21.838c-.611 4.612-3.324 7.733-7.665 7.733-4.273 0-7.055-3.053-7.868-7.733h15.533zm-6.647-21.838c-10.921 0-18.992 7.663-18.992 18.787v.134c0 10.379 7.394 18.924 17.974 18.924 12.14 0 17.5-9.971 17.5-17.497 0-2.985-2.104-4.952-4.817-4.952h-20.415c1.017-4.68 4.273-7.123 8.885-7.123 2.848 0 5.222.882 7.326 2.443.745.542 1.424.813 2.508.813 2.306 0 4.002-1.763 4.002-4.069 0-1.356-.611-2.374-1.356-3.051-3.188-2.714-7.326-4.409-12.615-4.409m35.066 19.058v-.137c0-6.036 4.07-10.037 8.884-10.037 4.817 0 8.819 4.001 8.819 10.037v.137c0 6.036-4.002 10.037-8.819 10.037-4.814 0-8.884-3.933-8.884-10.037m27.877-13.496c0-2.851-2.306-5.157-5.155-5.157-2.85 0-5.156 2.306-5.156 5.157v.474c-2.509-3.391-5.968-5.902-11.327-5.902-8.477 0-16.548 6.647-16.548 18.787v.137c0 12.141 7.935 18.787 16.548 18.787 5.496 0 8.886-2.509 11.327-5.425v13.157c0 2.848 2.306 5.154 5.156 5.154 2.849 0 5.155-2.306 5.155-5.154V76.809zm11.7344 26.8577c0 2.848 2.306 5.154 5.156 5.154 2.849 0 5.155-2.306 5.155-5.154v-26.858c0-2.851-2.306-5.157-5.155-5.157-2.85 0-5.156 2.306-5.156 5.157v26.858zm49.922-13.4984v.137c0 6.036-4.07 10.037-8.886 10.037-4.815 0-8.817-4.001-8.817-10.037v-.137c0-6.036 4.002-10.037 8.817-10.037 4.816 0 8.886 3.935 8.886 10.037m-27.877 13.498c0 2.849 2.306 5.155 5.155 5.155 2.848 0 5.154-2.306 5.154-5.155v-.476c2.511 3.393 5.97 5.902 11.327 5.902 8.479 0 16.55-6.647 16.55-18.787v-.137c0-12.141-7.935-18.787-16.55-18.787-5.494 0-8.884 2.511-11.327 5.427v-10.853c0-2.848-2.306-5.154-5.154-5.154-2.849 0-5.155 2.306-5.155 5.154v37.711zm48.2932 13.1572c0 2.848 2.306 5.154 5.156 5.154 2.849 0 5.155-2.306 5.155-5.154v-40.015c0-2.85-2.306-5.156-5.155-5.156-2.85 0-5.156 2.306-5.156 5.156v40.015zm43.5464-31.944v1.83c-1.764.815-4.07 1.358-6.581 1.358-4.406 0-7.12-1.764-7.12-5.02v-.134c0-2.783 2.306-4.41 5.63-4.41 4.815 0 8.071 2.646 8.071 6.376m-23.67-2.374v.134c0 7.937 6.036 11.598 14.649 11.598 3.662 0 6.307-.61 8.884-1.49v.609c0 4.274-2.645 6.646-7.799 6.646-2.849 0-5.155-.405-7.121-1.016-.611-.203-1.019-.271-1.493-.271-2.374 0-4.272 1.832-4.272 4.204 0 1.832 1.153 3.393 2.78 4.003 3.256 1.22 6.783 1.899 11.598 1.899 5.631 0 9.7-1.493 12.277-4.07 2.712-2.714 3.933-6.715 3.933-11.598v-16.55c0-2.78-2.237-4.951-5.019-4.951-2.983 0-4.952 2.103-4.952 4.274v.067c-2.509-2.78-5.968-4.612-10.987-4.612-6.85 0-12.478 3.935-12.478 11.124m44.3574 21.1612c0 2.848 2.306 5.154 5.154 5.154 2.849 0 5.155-2.306 5.155-5.154v-.408c2.374 3.053 5.427 5.833 10.65 5.833 7.799 0 12.343-5.154 12.343-13.496v-18.787c0-2.851-2.306-5.157-5.154-5.157-2.849 0-5.155 2.306-5.155 5.157v15.531c0 4.883-2.306 7.392-6.241 7.392-3.933 0-6.443-2.509-6.443-7.392v-15.531c0-2.851-2.306-5.157-5.155-5.157-2.848 0-5.154 2.306-5.154 5.157v26.858zM508.1603 117.842c0 3.184 2.581 5.765 5.765 5.765 3.184 0 5.765-2.581 5.765-5.765 0-3.184-2.581-5.765-5.765-5.765-3.184 0-5.765 2.581-5.765 5.765m-100.179-39.1783l-16.591 40.053c-.036.09-.075.178-.116.265-.003.005-.005.009-.007.014-.016.034-.033.067-.05.101-.006.013-.013.026-.02.04-.012.023-.025.047-.037.071l-.033.06-.027.048c-.014.025-.029.05-.043.075-.007.011-.013.022-.019.032-.017.029-.035.057-.052.085-.004.007-.008.013-.012.02-.019.03-.039.061-.059.091l-.009.014-.063.093c-.003.003-.005.007-.008.011l-.066.093c-.003.003-.005.006-.007.01-.023.03-.046.061-.069.091-.003.004-.006.008-.009.011-.022.029-.045.058-.068.087-.004.005-.009.01-.013.016-.022.027-.044.053-.066.08-.006.007-.012.014-.018.02-.021.025-.042.049-.063.073-.009.01-.017.019-.026.028-.019.022-.038.043-.058.064-.011.011-.021.023-.032.034-.018.019-.036.037-.054.056l-.039.039c-.016.017-.032.033-.049.049-.016.016-.033.032-.049.047-.012.012-.025.024-.037.035-.021.02-.043.04-.064.059-.01.008-.019.017-.028.025-.023.02-.046.041-.07.061-.008.007-.016.014-.025.021-.025.022-.051.043-.077.064-.006.005-.012.01-.019.015-.027.022-.055.044-.083.066-.005.004-.01.007-.015.011-.028.022-.057.044-.086.065-.006.004-.011.008-.017.013-.029.02-.057.041-.086.061-.006.004-.012.008-.017.012-.029.02-.057.039-.086.058-.008.006-.017.011-.025.017-.026.016-.052.033-.078.05-.012.007-.024.015-.037.023l-.069.042c-.016.009-.031.018-.047.027-.02.012-.04.024-.06.035-.022.013-.044.025-.066.037-.014.008-.028.015-.042.023-.034.018-.068.036-.103.053-.002.002-.004.003-.006.004-.238.12-.485.223-.738.306-.014.005-.028.009-.041.013-.026.008-.051.017-.077.024-.024.008-.048.015-.072.022-.016.004-.031.009-.047.013-.031.009-.062.017-.093.025l-.024.006c-.035.009-.071.018-.107.026-.004.001-.009.002-.014.003-.037.009-.074.017-.111.024l-.012.003c-.038.008-.076.015-.114.022-.003 0-.007.001-.01.001-.038.007-.077.014-.115.02-.003 0-.007.001-.01.001-.039.006-.077.012-.116.017-.003 0-.007.001-.01.001-.038.005-.075.009-.112.013-.007.001-.013.001-.019.002-.034.004-.068.007-.102.01-.011.001-.022.001-.033.002-.03.002-.059.005-.089.006l-.047.003-.075.003c-.02.001-.041.001-.062.002-.019 0-.038.001-.057.001-.027 0-.054.001-.081 0h-.042c-.032 0-.065-.001-.097-.002h-.022c-.039-.002-.078-.003-.117-.005-.001-.001-.002-.001-.003-.001-.414-.023-.83-.095-1.24-.221-.005-.002-.011-.004-.016-.005-.033-.011-.065-.021-.098-.032-.023-.007-.045-.015-.068-.023-.017-.006-.033-.011-.049-.017-.167-.06-.331-.128-.491-.204-.006-.002-.011-.005-.017-.008-.032-.015-.064-.031-.096-.047-.017-.009-.034-.017-.051-.026-.02-.011-.04-.021-.059-.031-.025-.013-.049-.027-.073-.04-.012-.006-.023-.013-.035-.019-.029-.016-.057-.033-.085-.05-.008-.004-.015-.008-.023-.013-.03-.018-.06-.036-.09-.055-.005-.003-.011-.007-.016-.01-.032-.02-.063-.04-.094-.061-.004-.002-.007-.004-.011-.006-.033-.022-.065-.044-.097-.067-.002-.001-.004-.002-.005-.003-.034-.023-.066-.047-.099-.07-.001-.002-.003-.003-.005-.004-.032-.024-.065-.048-.096-.073-.002-.001-.004-.002-.006-.004-.03-.023-.06-.047-.09-.071-.005-.004-.01-.008-.014-.012-.028-.022-.055-.045-.082-.068-.007-.005-.013-.01-.019-.016-.025-.021-.05-.043-.075-.065l-.024-.021c-.023-.021-.045-.041-.067-.062-.012-.011-.023-.022-.035-.033-.017-.016-.034-.032-.051-.049-.016-.016-.033-.032-.049-.048-.013-.013-.025-.026-.038-.039-.019-.019-.037-.038-.056-.057-.009-.011-.019-.021-.029-.032-.021-.022-.041-.044-.061-.067-.008-.008-.015-.016-.023-.025-.022-.025-.045-.051-.067-.077-.004-.005-.008-.01-.013-.015l-.072-.087c-.002-.002-.004-.005-.006-.007-.105-.13-.204-.265-.297-.406-.023-.034-.045-.069-.067-.104-.001-.002-.003-.005-.004-.007-.02-.032-.04-.064-.059-.097-.004-.006-.008-.013-.012-.02-.017-.028-.034-.057-.05-.087-.007-.011-.013-.022-.019-.034-.014-.024-.027-.049-.041-.074-.01-.02-.021-.04-.031-.06-.008-.016-.017-.032-.025-.049-.014-.027-.028-.055-.041-.083-.006-.011-.011-.022-.016-.034-.041-.085-.08-.173-.116-.261l-11.737-28.337-11.734 28.33c-.055.133-.115.265-.18.394-.001.001-.002.003-.002.004-.019.036-.037.072-.056.107-.006.01-.012.021-.017.031-.014.026-.029.052-.043.078-.01.016-.019.033-.029.05-.011.019-.023.038-.034.058-.013.02-.025.041-.038.061-.009.015-.018.029-.027.043-.014.023-.028.045-.043.068-.009.014-.018.028-.027.041-.015.022-.03.044-.045.065-.008.013-.017.026-.026.039-.016.023-.032.045-.049.068-.009.012-.017.024-.026.036l-.048.063c-.011.015-.022.029-.033.043-.014.019-.029.037-.044.056-.012.016-.025.032-.038.047-.013.016-.027.032-.04.048-.016.019-.031.037-.047.055-.011.013-.022.026-.034.039-.018.021-.037.042-.056.063-.009.009-.017.019-.026.028-.022.024-.044.048-.067.071-.006.006-.012.013-.018.019-.025.026-.051.052-.076.077-.004.004-.008.007-.011.011-.354.348-.761.649-1.216.891-.005.003-.011.006-.016.008-.031.016-.061.032-.092.048-.015.008-.031.015-.046.022-.022.011-.045.022-.067.033l-.072.033c-.015.007-.029.014-.045.02-.12.054-.242.103-.366.147-.015.005-.031.011-.047.016-.025.009-.049.017-.074.025l-.063.021-.058.018c-.026.008-.051.015-.077.022-.015.005-.029.009-.043.013-.031.008-.061.016-.091.024-.01.002-.019.005-.029.007-.032.009-.065.017-.098.024l-.025.006c-.033.008-.066.015-.099.022-.009.001-.018.003-.027.005-.032.007-.065.013-.098.019-.009.002-.018.003-.026.005-.033.006-.066.011-.1.016-.008.002-.017.003-.026.004l-.1.015-.027.003c-.032.004-.064.008-.097.011-.011.002-.022.003-.033.004-.03.003-.059.006-.089.008-.015.001-.03.003-.046.004-.025.002-.051.003-.077.005l-.056.003-.067.003c-.023.001-.046.001-.069.002-.017 0-.035.001-.053.001-.027 0-.055.001-.082 0h-.042c-.031 0-.063-.001-.094-.002h-.028c-.036-.002-.071-.003-.107-.005-.005 0-.011-.001-.015-.001-.038-.002-.076-.005-.114-.008-.004 0-.008 0-.013-.001-.124-.01-.247-.024-.371-.044h-.003c-.04-.006-.08-.013-.119-.02-.003 0-.006-.001-.009-.001-.038-.007-.076-.015-.113-.022l-.016-.003c-.035-.008-.069-.015-.103-.023-.011-.002-.021-.005-.031-.007-.029-.007-.057-.013-.086-.021-.018-.004-.037-.009-.055-.014-.021-.006-.043-.011-.064-.017-.026-.007-.052-.015-.078-.023-.013-.004-.027-.007-.04-.011-.424-.128-.83-.309-1.209-.538l-.009-.006c-.033-.02-.066-.04-.099-.061-.006-.004-.013-.008-.019-.012-.029-.019-.058-.038-.086-.057-.009-.006-.019-.012-.028-.019-.025-.017-.051-.035-.077-.053-.01-.007-.02-.015-.03-.022-.024-.017-.048-.035-.072-.052-.011-.009-.023-.017-.034-.026-.024-.018-.048-.037-.072-.056l-.026-.02c-.025-.02-.049-.04-.073-.06-.01-.007-.019-.015-.028-.023-.025-.02-.05-.042-.074-.063-.007-.006-.013-.012-.02-.017-.026-.023-.052-.047-.078-.07-.005-.005-.011-.01-.016-.015-.028-.026-.057-.053-.084-.08l-.005-.003c-.328-.318-.619-.682-.86-1.089-.002-.003-.004-.007-.007-.011-.018-.031-.037-.063-.055-.095-.004-.008-.009-.016-.013-.024-.016-.028-.031-.056-.046-.084-.008-.016-.016-.032-.025-.047-.01-.021-.021-.041-.031-.062l-.039-.078c-.006-.012-.012-.024-.017-.037-.041-.085-.08-.172-.116-.261l-16.591-40.053c-1.11-2.681.162-5.753 2.843-6.864.657-.272 1.338-.401 2.008-.401 2.062 0 4.018 1.222 4.856 3.244l11.745 28.357 11.738-28.337c.027-.066.055-.131.085-.196.003-.007.006-.013.009-.019.026-.057.053-.113.081-.168.003-.007.007-.013.01-.02.025-.049.051-.098.078-.146.004-.009.009-.017.014-.026.027-.049.055-.096.083-.144.01-.016.02-.033.03-.049.023-.036.045-.072.069-.108.013-.021.027-.042.041-.063.023-.034.046-.067.07-.101.013-.019.027-.039.041-.058.025-.034.05-.068.076-.102.016-.021.033-.043.05-.064l.069-.087c.014-.016.028-.033.041-.049.034-.04.068-.079.102-.118.011-.011.021-.022.031-.033.029-.032.059-.064.089-.095.011-.012.023-.024.034-.036.04-.04.079-.08.12-.118l.014-.014c.04-.038.08-.075.121-.112.006-.005.012-.01.017-.015.092-.082.188-.16.286-.236.002-.001.004-.003.006-.004.098-.075.198-.146.302-.215.005-.003.009-.006.014-.009.099-.064.2-.126.305-.184.011-.006.022-.013.033-.019.042-.023.084-.046.128-.068.009-.005.019-.01.029-.015.047-.024.094-.047.142-.069.02-.01.041-.019.062-.029.03-.014.06-.027.091-.04.022-.01.044-.019.067-.029.003-.002.007-.003.011-.005.042-.017.085-.034.127-.05.017-.007.035-.014.053-.02.037-.014.075-.028.113-.041.015-.005.031-.011.047-.016.112-.038.225-.072.339-.101.003-.002.007-.002.011-.003.247-.065.495-.11.743-.138.002 0 .004 0 .005-.001.123-.013.246-.022.368-.027.009 0 .018-.001.027-.001.058-.002.117-.003.175-.003h.004c.059 0 .119.001.178.003.007.001.014.001.021.001.492.019.989.108 1.475.272.011.004.021.007.032.011.047.016.093.033.14.051.009.003.019.006.028.01.045.017.089.035.134.053.006.003.012.006.018.008.016.007.031.013.047.02.04.017.079.035.119.053l.039.018c.052.024.104.05.155.076.003.001.005.002.008.004.051.026.102.053.151.08.007.004.013.008.02.011.335.188.643.408.922.655.003.003.006.005.009.008.042.037.083.076.124.115.006.005.012.01.017.016.04.038.08.077.118.117.012.012.024.025.036.037.029.03.057.06.085.09.011.013.023.026.035.039.033.037.066.075.097.112.017.02.033.039.049.059.02.024.039.049.059.073.023.03.046.059.069.089.02.027.04.053.059.08.017.023.033.046.05.069.018.027.037.054.055.08.02.03.04.06.059.09.019.03.038.059.056.089.013.021.026.041.038.062.026.044.052.088.077.133.008.014.016.028.023.042.024.043.046.085.068.129.005.009.01.019.015.028.028.055.054.109.08.164.003.008.006.015.01.022.029.065.057.129.084.195l11.737 28.337 11.746-28.357c.838-2.023 2.793-3.244 4.855-3.244.67 0 1.351.129 2.008.401 2.681 1.111 3.953 4.183 2.843 6.864"/>
  </g>
</svg>
